<mxfile host="app.diagrams.net" modified="2024-03-04T18:45:41.918Z" agent="Mozilla/5.0 (X11; Ubuntu; Linux x86_64; rv:122.0) Gecko/20100101 Firefox/122.0" etag="XUoEyDsIBl4XLLLl6IeA" version="23.1.7" type="device">
  <diagram name="Page-1" id="MCaYOAFvDus-fFm5-rie">
    <mxGraphModel dx="989" dy="605" grid="1" gridSize="10" guides="1" tooltips="1" connect="1" arrows="1" fold="1" page="1" pageScale="1" pageWidth="850" pageHeight="1100" math="0" shadow="0">
      <root>
        <mxCell id="0" />
        <mxCell id="1" parent="0" />
        <mxCell id="FZEwXJ878QIRB1UzETSN-8" style="edgeStyle=orthogonalEdgeStyle;rounded=0;orthogonalLoop=1;jettySize=auto;html=1;exitX=0.5;exitY=1;exitDx=0;exitDy=0;entryX=0;entryY=0.5;entryDx=0;entryDy=0;" parent="1" source="FZEwXJ878QIRB1UzETSN-1" target="FZEwXJ878QIRB1UzETSN-2" edge="1">
          <mxGeometry relative="1" as="geometry">
            <Array as="points">
              <mxPoint x="200" y="170" />
              <mxPoint x="100" y="170" />
              <mxPoint x="100" y="235" />
            </Array>
          </mxGeometry>
        </mxCell>
        <mxCell id="FZEwXJ878QIRB1UzETSN-1" value="&lt;font face=&quot;Courier New&quot;&gt;vm_map&lt;/font&gt;" style="rounded=0;whiteSpace=wrap;html=1;fontSize=16;" parent="1" vertex="1">
          <mxGeometry x="150" y="110" width="100" height="40" as="geometry" />
        </mxCell>
        <mxCell id="FZEwXJ878QIRB1UzETSN-9" style="edgeStyle=orthogonalEdgeStyle;rounded=0;orthogonalLoop=1;jettySize=auto;html=1;exitX=1;exitY=0.5;exitDx=0;exitDy=0;entryX=0;entryY=0.5;entryDx=0;entryDy=0;" parent="1" source="FZEwXJ878QIRB1UzETSN-2" target="FZEwXJ878QIRB1UzETSN-5" edge="1">
          <mxGeometry relative="1" as="geometry" />
        </mxCell>
        <mxCell id="FZEwXJ878QIRB1UzETSN-15" style="edgeStyle=orthogonalEdgeStyle;rounded=0;orthogonalLoop=1;jettySize=auto;html=1;exitX=0.25;exitY=1;exitDx=0;exitDy=0;" parent="1" source="FZEwXJ878QIRB1UzETSN-2" target="FZEwXJ878QIRB1UzETSN-14" edge="1">
          <mxGeometry relative="1" as="geometry" />
        </mxCell>
        <mxCell id="FZEwXJ878QIRB1UzETSN-2" value="&lt;font face=&quot;Courier New&quot;&gt;vm_map_entry&lt;/font&gt;" style="rounded=0;whiteSpace=wrap;html=1;fontSize=16;" parent="1" vertex="1">
          <mxGeometry x="120" y="220" width="120" height="30" as="geometry" />
        </mxCell>
        <mxCell id="FZEwXJ878QIRB1UzETSN-4" style="edgeStyle=orthogonalEdgeStyle;rounded=0;orthogonalLoop=1;jettySize=auto;html=1;exitX=0.5;exitY=1;exitDx=0;exitDy=0;entryX=0.5;entryY=0;entryDx=0;entryDy=0;" parent="1" source="FZEwXJ878QIRB1UzETSN-3" target="FZEwXJ878QIRB1UzETSN-1" edge="1">
          <mxGeometry relative="1" as="geometry" />
        </mxCell>
        <mxCell id="FZEwXJ878QIRB1UzETSN-3" value="Process" style="rounded=1;whiteSpace=wrap;html=1;fontSize=16;" parent="1" vertex="1">
          <mxGeometry x="160" y="30" width="80" height="40" as="geometry" />
        </mxCell>
        <mxCell id="FZEwXJ878QIRB1UzETSN-10" style="edgeStyle=orthogonalEdgeStyle;rounded=0;orthogonalLoop=1;jettySize=auto;html=1;exitX=1;exitY=0.5;exitDx=0;exitDy=0;entryX=0;entryY=0.5;entryDx=0;entryDy=0;" parent="1" source="FZEwXJ878QIRB1UzETSN-5" target="FZEwXJ878QIRB1UzETSN-7" edge="1">
          <mxGeometry relative="1" as="geometry">
            <mxPoint x="440" y="235" as="targetPoint" />
          </mxGeometry>
        </mxCell>
        <mxCell id="FZEwXJ878QIRB1UzETSN-17" style="edgeStyle=orthogonalEdgeStyle;rounded=0;orthogonalLoop=1;jettySize=auto;html=1;exitX=0.25;exitY=1;exitDx=0;exitDy=0;" parent="1" source="FZEwXJ878QIRB1UzETSN-5" target="FZEwXJ878QIRB1UzETSN-16" edge="1">
          <mxGeometry relative="1" as="geometry" />
        </mxCell>
        <mxCell id="FZEwXJ878QIRB1UzETSN-18" style="edgeStyle=orthogonalEdgeStyle;rounded=0;orthogonalLoop=1;jettySize=auto;html=1;exitX=0.25;exitY=1;exitDx=0;exitDy=0;entryX=0;entryY=0.5;entryDx=0;entryDy=0;" parent="1" source="FZEwXJ878QIRB1UzETSN-5" target="FZEwXJ878QIRB1UzETSN-12" edge="1">
          <mxGeometry relative="1" as="geometry" />
        </mxCell>
        <mxCell id="FZEwXJ878QIRB1UzETSN-5" value="&lt;font face=&quot;Courier New&quot;&gt;vm_map_entry&lt;/font&gt;" style="rounded=0;whiteSpace=wrap;html=1;fontSize=16;" parent="1" vertex="1">
          <mxGeometry x="310" y="220" width="120" height="30" as="geometry" />
        </mxCell>
        <mxCell id="FZEwXJ878QIRB1UzETSN-19" style="edgeStyle=orthogonalEdgeStyle;rounded=0;orthogonalLoop=1;jettySize=auto;html=1;exitX=0.25;exitY=1;exitDx=0;exitDy=0;entryX=0;entryY=0.5;entryDx=0;entryDy=0;" parent="1" source="FZEwXJ878QIRB1UzETSN-7" target="FZEwXJ878QIRB1UzETSN-13" edge="1">
          <mxGeometry relative="1" as="geometry" />
        </mxCell>
        <mxCell id="FZEwXJ878QIRB1UzETSN-7" value="&lt;font face=&quot;Courier New&quot;&gt;vm_map_entry&lt;/font&gt;" style="rounded=0;whiteSpace=wrap;html=1;fontSize=16;" parent="1" vertex="1">
          <mxGeometry x="540" y="220" width="120" height="30" as="geometry" />
        </mxCell>
        <mxCell id="FZEwXJ878QIRB1UzETSN-43" style="edgeStyle=orthogonalEdgeStyle;rounded=0;orthogonalLoop=1;jettySize=auto;html=1;exitX=0.25;exitY=1;exitDx=0;exitDy=0;entryX=0.5;entryY=0;entryDx=0;entryDy=0;" parent="1" source="FZEwXJ878QIRB1UzETSN-12" target="FZEwXJ878QIRB1UzETSN-35" edge="1">
          <mxGeometry relative="1" as="geometry">
            <Array as="points">
              <mxPoint x="380" y="310" />
            </Array>
          </mxGeometry>
        </mxCell>
        <mxCell id="FZEwXJ878QIRB1UzETSN-45" style="edgeStyle=orthogonalEdgeStyle;rounded=0;orthogonalLoop=1;jettySize=auto;html=1;exitX=0.75;exitY=1;exitDx=0;exitDy=0;entryX=0.5;entryY=0;entryDx=0;entryDy=0;" parent="1" source="FZEwXJ878QIRB1UzETSN-12" target="FZEwXJ878QIRB1UzETSN-38" edge="1">
          <mxGeometry relative="1" as="geometry">
            <Array as="points">
              <mxPoint x="470" y="310" />
            </Array>
          </mxGeometry>
        </mxCell>
        <mxCell id="FZEwXJ878QIRB1UzETSN-12" value="&lt;font face=&quot;Courier New&quot; style=&quot;font-size: 15px;&quot;&gt;vm_amap&lt;/font&gt;" style="rounded=0;whiteSpace=wrap;html=1;" parent="1" vertex="1">
          <mxGeometry x="360" y="280" width="135" height="30" as="geometry" />
        </mxCell>
        <mxCell id="FZEwXJ878QIRB1UzETSN-64" style="edgeStyle=orthogonalEdgeStyle;rounded=0;orthogonalLoop=1;jettySize=auto;html=1;exitX=0.25;exitY=1;exitDx=0;exitDy=0;entryX=0.5;entryY=0;entryDx=0;entryDy=0;" parent="1" source="FZEwXJ878QIRB1UzETSN-13" target="FZEwXJ878QIRB1UzETSN-39" edge="1">
          <mxGeometry relative="1" as="geometry" />
        </mxCell>
        <mxCell id="FZEwXJ878QIRB1UzETSN-65" style="edgeStyle=orthogonalEdgeStyle;rounded=0;orthogonalLoop=1;jettySize=auto;html=1;exitX=0.75;exitY=1;exitDx=0;exitDy=0;entryX=0.5;entryY=0;entryDx=0;entryDy=0;" parent="1" source="FZEwXJ878QIRB1UzETSN-13" target="FZEwXJ878QIRB1UzETSN-42" edge="1">
          <mxGeometry relative="1" as="geometry" />
        </mxCell>
        <mxCell id="FZEwXJ878QIRB1UzETSN-68" style="edgeStyle=orthogonalEdgeStyle;rounded=0;orthogonalLoop=1;jettySize=auto;html=1;exitX=0.5;exitY=1;exitDx=0;exitDy=0;entryX=0.5;entryY=0;entryDx=0;entryDy=0;" parent="1" source="FZEwXJ878QIRB1UzETSN-13" target="FZEwXJ878QIRB1UzETSN-37" edge="1">
          <mxGeometry relative="1" as="geometry" />
        </mxCell>
        <mxCell id="FZEwXJ878QIRB1UzETSN-13" value="&lt;font style=&quot;font-size: 15px;&quot; face=&quot;Courier New&quot;&gt;vm_&lt;font style=&quot;font-size: 15px;&quot;&gt;amap&lt;/font&gt;&lt;/font&gt;" style="rounded=0;whiteSpace=wrap;html=1;" parent="1" vertex="1">
          <mxGeometry x="590" y="280" width="135" height="30" as="geometry" />
        </mxCell>
        <mxCell id="FZEwXJ878QIRB1UzETSN-57" style="edgeStyle=orthogonalEdgeStyle;rounded=0;orthogonalLoop=1;jettySize=auto;html=1;exitX=0.5;exitY=1;exitDx=0;exitDy=0;entryX=0.5;entryY=0;entryDx=0;entryDy=0;endSize=3;" parent="1" source="FZEwXJ878QIRB1UzETSN-35" target="FZEwXJ878QIRB1UzETSN-55" edge="1">
          <mxGeometry relative="1" as="geometry" />
        </mxCell>
        <mxCell id="FZEwXJ878QIRB1UzETSN-35" value="" style="rounded=0;whiteSpace=wrap;html=1;" parent="1" vertex="1">
          <mxGeometry x="370" y="340" width="20" height="30" as="geometry" />
        </mxCell>
        <mxCell id="FZEwXJ878QIRB1UzETSN-59" style="edgeStyle=orthogonalEdgeStyle;rounded=0;orthogonalLoop=1;jettySize=auto;html=1;exitX=0.5;exitY=1;exitDx=0;exitDy=0;endSize=3;entryX=0.5;entryY=0;entryDx=0;entryDy=0;entryPerimeter=0;" parent="1" source="FZEwXJ878QIRB1UzETSN-37" target="FZEwXJ878QIRB1UzETSN-67" edge="1">
          <mxGeometry relative="1" as="geometry">
            <mxPoint x="670" y="390" as="targetPoint" />
          </mxGeometry>
        </mxCell>
        <mxCell id="FZEwXJ878QIRB1UzETSN-37" value="" style="rounded=0;whiteSpace=wrap;html=1;" parent="1" vertex="1">
          <mxGeometry x="660" y="340" width="20" height="30" as="geometry" />
        </mxCell>
        <mxCell id="FZEwXJ878QIRB1UzETSN-58" style="edgeStyle=orthogonalEdgeStyle;rounded=0;orthogonalLoop=1;jettySize=auto;html=1;exitX=0.5;exitY=1;exitDx=0;exitDy=0;entryX=0.5;entryY=0;entryDx=0;entryDy=0;endSize=3;" parent="1" source="FZEwXJ878QIRB1UzETSN-38" target="FZEwXJ878QIRB1UzETSN-56" edge="1">
          <mxGeometry relative="1" as="geometry" />
        </mxCell>
        <mxCell id="FZEwXJ878QIRB1UzETSN-38" value="" style="rounded=0;whiteSpace=wrap;html=1;" parent="1" vertex="1">
          <mxGeometry x="460" y="340" width="20" height="30" as="geometry" />
        </mxCell>
        <mxCell id="FZEwXJ878QIRB1UzETSN-62" style="edgeStyle=orthogonalEdgeStyle;rounded=0;orthogonalLoop=1;jettySize=auto;html=1;exitX=0.5;exitY=1;exitDx=0;exitDy=0;entryX=0.5;entryY=0;entryDx=0;entryDy=0;startSize=6;endSize=3;" parent="1" source="FZEwXJ878QIRB1UzETSN-39" target="FZEwXJ878QIRB1UzETSN-60" edge="1">
          <mxGeometry relative="1" as="geometry" />
        </mxCell>
        <mxCell id="FZEwXJ878QIRB1UzETSN-39" value="" style="rounded=0;whiteSpace=wrap;html=1;" parent="1" vertex="1">
          <mxGeometry x="600" y="340" width="20" height="30" as="geometry" />
        </mxCell>
        <mxCell id="FZEwXJ878QIRB1UzETSN-63" style="edgeStyle=orthogonalEdgeStyle;rounded=0;orthogonalLoop=1;jettySize=auto;html=1;exitX=0.5;exitY=1;exitDx=0;exitDy=0;entryX=0.5;entryY=0;entryDx=0;entryDy=0;endSize=3;" parent="1" source="FZEwXJ878QIRB1UzETSN-42" target="FZEwXJ878QIRB1UzETSN-61" edge="1">
          <mxGeometry relative="1" as="geometry" />
        </mxCell>
        <mxCell id="FZEwXJ878QIRB1UzETSN-42" value="" style="rounded=0;whiteSpace=wrap;html=1;" parent="1" vertex="1">
          <mxGeometry x="690" y="340" width="20" height="30" as="geometry" />
        </mxCell>
        <mxCell id="FZEwXJ878QIRB1UzETSN-47" value="" style="group" parent="1" vertex="1" connectable="0">
          <mxGeometry x="280" y="430" width="140" height="90" as="geometry" />
        </mxCell>
        <mxCell id="FZEwXJ878QIRB1UzETSN-16" value="" style="triangle;whiteSpace=wrap;html=1;rotation=-90;" parent="FZEwXJ878QIRB1UzETSN-47" vertex="1">
          <mxGeometry x="20" y="-20" width="80" height="120" as="geometry" />
        </mxCell>
        <mxCell id="FZEwXJ878QIRB1UzETSN-28" value="" style="ellipse;whiteSpace=wrap;html=1;aspect=fixed;strokeColor=none;fillColor=#000000;" parent="FZEwXJ878QIRB1UzETSN-47" vertex="1">
          <mxGeometry x="40" y="58" width="20" height="20" as="geometry" />
        </mxCell>
        <mxCell id="FZEwXJ878QIRB1UzETSN-30" value="" style="ellipse;whiteSpace=wrap;html=1;aspect=fixed;strokeColor=none;fillColor=#000000;" parent="FZEwXJ878QIRB1UzETSN-47" vertex="1">
          <mxGeometry x="80" y="58" width="20" height="20" as="geometry" />
        </mxCell>
        <mxCell id="FZEwXJ878QIRB1UzETSN-55" value="" style="ellipse;whiteSpace=wrap;html=1;aspect=fixed;strokeColor=none;fillColor=#000000;" parent="1" vertex="1">
          <mxGeometry x="370" y="390" width="20" height="20" as="geometry" />
        </mxCell>
        <mxCell id="FZEwXJ878QIRB1UzETSN-56" value="" style="ellipse;whiteSpace=wrap;html=1;aspect=fixed;strokeColor=none;fillColor=#000000;" parent="1" vertex="1">
          <mxGeometry x="460" y="390" width="20" height="20" as="geometry" />
        </mxCell>
        <mxCell id="FZEwXJ878QIRB1UzETSN-60" value="" style="ellipse;whiteSpace=wrap;html=1;aspect=fixed;strokeColor=none;fillColor=#000000;" parent="1" vertex="1">
          <mxGeometry x="600" y="390" width="20" height="20" as="geometry" />
        </mxCell>
        <mxCell id="FZEwXJ878QIRB1UzETSN-61" value="" style="ellipse;whiteSpace=wrap;html=1;aspect=fixed;strokeColor=none;fillColor=#000000;" parent="1" vertex="1">
          <mxGeometry x="690" y="390" width="20" height="20" as="geometry" />
        </mxCell>
        <mxCell id="FZEwXJ878QIRB1UzETSN-14" value="" style="triangle;whiteSpace=wrap;html=1;rotation=-90;" parent="1" vertex="1">
          <mxGeometry x="110" y="410" width="80" height="120" as="geometry" />
        </mxCell>
        <mxCell id="FZEwXJ878QIRB1UzETSN-23" value="" style="ellipse;whiteSpace=wrap;html=1;aspect=fixed;strokeColor=none;fillColor=#000000;" parent="1" vertex="1">
          <mxGeometry x="108" y="488" width="20" height="20" as="geometry" />
        </mxCell>
        <mxCell id="FZEwXJ878QIRB1UzETSN-24" value="" style="ellipse;whiteSpace=wrap;html=1;aspect=fixed;strokeColor=none;fillColor=#000000;" parent="1" vertex="1">
          <mxGeometry x="130" y="488" width="20" height="20" as="geometry" />
        </mxCell>
        <mxCell id="FZEwXJ878QIRB1UzETSN-26" value="" style="ellipse;whiteSpace=wrap;html=1;aspect=fixed;strokeColor=none;fillColor=#000000;" parent="1" vertex="1">
          <mxGeometry x="170" y="488" width="20" height="20" as="geometry" />
        </mxCell>
        <mxCell id="FZEwXJ878QIRB1UzETSN-66" value="&lt;font style=&quot;font-size: 12px;&quot; face=&quot;Courier New&quot;&gt;uvm_object&lt;/font&gt;" style="text;html=1;align=center;verticalAlign=middle;resizable=0;points=[];autosize=1;strokeColor=none;fillColor=none;" parent="1" vertex="1">
          <mxGeometry x="50" y="430" width="100" height="30" as="geometry" />
        </mxCell>
        <mxCell id="FZEwXJ878QIRB1UzETSN-67" value="&lt;div&gt;swap&lt;/div&gt;" style="shape=cylinder3;whiteSpace=wrap;html=1;boundedLbl=1;backgroundOutline=1;size=10.482758620689708;" parent="1" vertex="1">
          <mxGeometry x="640" y="460" width="60" height="50" as="geometry" />
        </mxCell>
        <mxCell id="FZEwXJ878QIRB1UzETSN-69" value="&lt;font face=&quot;Courier New&quot;&gt;vm_anon&lt;/font&gt;" style="text;html=1;align=center;verticalAlign=middle;resizable=0;points=[];autosize=1;strokeColor=none;fillColor=none;" parent="1" vertex="1">
          <mxGeometry x="384" y="340" width="70" height="30" as="geometry" />
        </mxCell>
        <mxCell id="FZEwXJ878QIRB1UzETSN-70" value="vm_&lt;font face=&quot;Courier New&quot;&gt;page&lt;/font&gt;" style="text;html=1;align=center;verticalAlign=middle;resizable=0;points=[];autosize=1;strokeColor=none;fillColor=none;" parent="1" vertex="1">
          <mxGeometry x="385" y="385" width="70" height="30" as="geometry" />
        </mxCell>
        <mxCell id="FZEwXJ878QIRB1UzETSN-71" value="&lt;font face=&quot;Courier New&quot;&gt;vm_page&lt;/font&gt;s" style="text;html=1;align=center;verticalAlign=middle;resizable=0;points=[];autosize=1;strokeColor=none;fillColor=none;" parent="1" vertex="1">
          <mxGeometry x="26" y="480" width="80" height="30" as="geometry" />
        </mxCell>
      </root>
    </mxGraphModel>
  </diagram>
</mxfile>
